<?xml version="1.0" standalone="no"?>
<!DOCTYPE svg PUBLIC "-//W3C//DTD SVG 20010904//EN"
 "http://www.w3.org/TR/2001/REC-SVG-20010904/DTD/svg10.dtd">
<svg version="1.0" xmlns="http://www.w3.org/2000/svg"
 width="460.000000pt" height="460.000000pt" viewBox="0 0 460.000000 460.000000"
 preserveAspectRatio="xMidYMid meet">
<metadata>
Created by potrace 1.11, written by Peter Selinger 2001-2013
</metadata>
<g transform="translate(0.000000,460.000000) scale(0.100000,-0.100000)"
fill="#000000" stroke="none">
<path d="M793 4556 c-18 -24 -33 -48 -33 -54 0 -5 -13 -22 -30 -35 -21 -18
-30 -35 -30 -56 0 -16 -4 -32 -10 -36 -5 -3 -7 -12 -3 -20 3 -8 0 -15 -7 -15
-10 0 -10 -3 0 -15 7 -8 10 -21 7 -29 -3 -7 -1 -18 5 -24 5 -5 9 -32 9 -58 -3
-122 -10 -234 -16 -244 -3 -6 -2 -25 4 -43 9 -28 14 -65 26 -167 13 -123 68
-306 87 -294 4 3 8 -4 8 -15 0 -12 4 -21 9 -21 4 0 5 19 0 43 -10 50 -11 62
-4 56 2 -3 11 -38 20 -78 14 -68 40 -139 55 -151 10 -8 46 -82 57 -115 9 -30
9 -30 81 -30 79 0 88 7 78 61 -3 15 1 48 9 71 8 24 15 65 15 90 0 56 27 123
47 116 7 -3 13 1 13 8 0 26 13 -2 21 -46 12 -66 28 -79 68 -54 29 17 81 26 81
14 0 -3 -9 -16 -20 -28 -14 -14 -19 -30 -15 -44 3 -13 1 -23 -4 -23 -5 0 -11
-10 -13 -22 -2 -15 -10 -23 -22 -23 -10 0 -22 -9 -26 -20 -6 -16 -10 -13 -25
22 l-18 42 -14 -26 c-7 -14 -13 -36 -13 -49 0 -13 -4 -24 -9 -24 -9 0 -23 -76
-22 -123 0 -37 -17 -80 -29 -72 -17 10 -11 -7 7 -20 14 -11 12 -14 -15 -26
-18 -8 -32 -21 -32 -30 0 -25 -28 -45 -42 -31 -16 16 -39 15 -52 -3 -8 -11
-20 -14 -41 -9 -36 7 -77 65 -107 154 -19 58 -19 62 -3 103 9 23 24 50 32 59
13 15 13 21 0 60 l-15 43 -1 -42 c-1 -24 4 -43 12 -46 6 -3 -24 -6 -68 -6
-149 -2 -195 -26 -215 -112 -7 -26 -18 -53 -26 -60 -8 -6 -14 -15 -14 -19 0
-17 -54 -90 -67 -90 -7 0 -31 -11 -52 -24 -64 -41 -75 -39 -82 19 -4 28 -8 95
-9 150 -3 121 -11 142 -60 155 -63 17 -154 -3 -250 -55 l-25 -14 -3 -1592 c-2
-1517 -1 -1591 15 -1576 75 66 200 128 262 129 86 1 145 -20 216 -77 84 -68
52 -65 749 -65 597 1 630 2 610 18 -20 17 -54 65 -54 78 0 3 7 4 15 0 8 -3 15
-2 15 2 0 4 25 7 55 8 40 1 55 -3 55 -13 0 -14 45 -19 53 -5 2 4 2 1 1 -6 -4
-14 12 -16 21 -2 3 6 15 5 31 -2 20 -10 27 -9 35 3 5 8 9 9 9 3 0 -15 80 -23
101 -11 22 13 53 1 45 -18 -8 -21 3 -19 22 5 15 18 21 19 50 9 18 -6 40 -8 50
-4 9 4 51 8 92 8 54 2 74 5 73 14 -2 7 4 13 13 13 8 0 13 -4 10 -9 -6 -10 16
-21 41 -21 13 0 13 3 3 15 -11 13 -8 15 18 15 17 0 34 -5 37 -10 3 -6 16 -10
28 -10 18 0 19 2 7 11 -15 10 0 9 123 -8 21 -3 43 -14 51 -24 7 -11 19 -18 27
-16 8 2 11 2 7 0 -5 -3 -8 -11 -8 -19 0 -10 12 -14 40 -14 33 0 40 3 40 20 0
14 -7 20 -22 21 -13 0 -17 3 -10 6 19 8 62 -6 59 -19 -1 -6 10 -18 24 -26 24
-14 30 -14 62 1 19 9 55 17 80 17 25 0 58 5 73 10 16 7 30 7 33 2 6 -10 111
-11 111 -2 0 4 -6 12 -12 19 -11 11 -10 12 1 6 7 -4 16 -2 21 4 4 7 42 21 86
32 68 18 96 20 204 14 224 -13 230 -14 230 -51 0 -17 -6 -24 -19 -24 -11 0
-22 4 -25 8 -3 5 -29 4 -58 -2 -49 -10 -67 -20 -68 -39 0 -4 67 -6 149 -5 132
3 150 5 154 20 4 13 0 17 -16 14 -21 -3 -97 30 -97 41 0 3 8 12 18 19 16 13
16 15 0 25 -22 12 -23 32 -3 49 8 7 15 24 15 39 0 37 27 73 53 69 12 -2 29
-20 43 -45 l22 -42 16 89 c20 108 20 118 4 102 -7 -7 -19 -12 -27 -12 -14 1
-13 3 1 14 10 7 15 16 11 19 -3 4 -1 7 5 7 7 0 12 6 12 14 0 10 -7 12 -22 8
-19 -4 -18 -1 10 22 17 15 32 35 32 45 0 9 5 22 10 27 7 7 6 22 -5 47 -15 37
-35 50 -155 99 -15 6 -20 12 -12 15 6 3 9 9 6 15 -5 7 4 9 24 6 23 -3 29 -1
24 10 -4 11 0 13 18 7 15 -5 20 -4 16 4 -4 6 22 25 64 46 69 35 81 47 58 61
-7 4 -8 3 -4 -4 9 -14 -42 -16 -63 -3 -8 5 -23 6 -34 2 -26 -10 -67 9 -67 31
0 9 -6 18 -12 21 -9 3 -5 12 12 27 18 17 20 21 7 17 -10 -4 -30 -7 -43 -7 -21
0 -25 -4 -23 -27 4 -57 1 -63 -33 -62 -18 0 -27 3 -20 6 6 2 12 19 12 36 0 24
-3 28 -10 17 -8 -12 -10 -11 -10 8 0 13 -6 22 -15 22 -8 0 -15 -7 -15 -15 0
-10 -10 -15 -29 -15 -24 0 -28 3 -24 20 3 11 9 23 14 26 5 3 9 19 9 36 l0 31
103 -7 c261 -17 255 -16 260 -45 l4 -26 2 28 c0 16 5 26 10 23 9 -6 23 46 36
136 8 52 52 128 88 150 30 19 86 34 181 48 44 7 85 14 93 17 11 4 13 115 13
624 l0 619 -31 97 c-30 94 -121 327 -160 409 -10 22 -19 43 -19 47 0 22 -152
316 -175 337 l-27 25 -416 -1 c-509 0 -735 -21 -1066 -98 -166 -39 -170 -44
-141 -176 88 -393 195 -1014 220 -1280 8 -89 -6 -87 -29 4 -18 67 -33 88 -92
122 -32 19 -43 33 -48 58 -3 18 -22 59 -42 92 -20 32 -43 77 -50 99 -8 22 -32
58 -53 80 -21 22 -61 75 -90 117 -54 81 -93 117 -155 143 -54 23 -85 55 -53
55 8 0 21 8 30 18 21 23 21 153 0 145 -7 -3 -14 2 -15 11 0 9 -1 22 -2 29 -1
6 -4 14 -8 17 -3 3 -8 25 -10 50 -3 38 -9 48 -35 65 -18 11 -32 26 -33 33 0 6
-4 12 -9 12 -13 0 -21 27 -15 45 7 17 34 21 34 5 0 -5 -7 -10 -15 -10 -27 0
-16 -18 14 -22 35 -5 75 8 66 22 -8 14 -14 128 -7 152 2 10 11 18 18 18 8 0
15 6 15 13 1 6 5 -15 10 -47 5 -32 15 -69 24 -82 8 -13 15 -31 15 -41 1 -17 1
-17 11 0 6 9 14 15 20 12 5 -4 9 -2 9 4 0 5 3 18 6 28 6 15 4 16 -7 6 -7 -7
-17 -13 -21 -13 -13 0 -9 33 6 53 16 21 40 23 32 2 -3 -8 -1 -15 4 -15 6 0 10
12 10 26 0 21 13 52 38 93 1 3 9 -4 17 -15 14 -18 14 -17 9 13 -6 28 -1 38 30
70 47 48 51 68 28 123 -17 41 -18 49 -5 88 8 23 19 42 24 42 5 0 9 7 9 15 0 9
7 18 15 21 8 4 12 10 9 15 -3 5 0 9 5 9 6 0 11 -7 11 -16 0 -11 5 -14 18 -9
45 19 56 19 48 0 -4 -11 7 -6 33 16 22 19 43 43 47 54 4 11 19 36 34 55 29 37
47 75 30 65 -10 -6 -15 20 -11 67 3 44 -16 41 -22 -4 -6 -48 -27 -67 -41 -38
-7 14 -4 25 8 39 10 11 14 25 10 36 -5 12 -4 16 3 12 14 -9 23 26 12 45 -7 12
-19 63 -45 185 -3 14 -9 20 -19 17 -9 -4 -16 3 -21 20 -3 15 -19 33 -35 42
-16 8 -29 18 -29 22 0 10 -64 78 -78 83 -5 2 -25 24 -44 49 -19 25 -43 45 -54
45 -31 1 -50 18 -51 45 0 14 -1 33 -2 43 -1 16 -43 17 -738 17 l-738 -1 -32
-43z m1879 -698 c-7 -7 -12 -8 -12 -2 0 6 3 14 7 17 3 4 9 5 12 2 2 -3 -1 -11
-7 -17z m30 -10 c-7 -7 -12 -8 -12 -2 0 6 3 14 7 17 3 4 9 5 12 2 2 -3 -1 -11
-7 -17z m-122 -83 c0 -2 -7 -5 -15 -9 -9 -3 -15 0 -15 9 0 9 6 12 15 9 8 -4
15 -7 15 -9z m-1580 -45 c11 -11 20 -25 20 -30 0 -14 -47 17 -54 36 -8 20 11
17 34 -6z m1470 -11 c-7 -11 -14 -18 -17 -15 -8 8 5 36 17 36 7 0 7 -6 0 -21z
m-1570 -19 c13 -8 13 -10 -2 -11 -29 -2 -32 -3 -55 -20 -16 -11 -25 -32 -32
-70 l-9 -54 -1 56 c-1 47 3 61 24 83 25 27 50 32 75 16z m1 -177 c-8 -15 -10
-15 -11 -2 0 17 10 32 18 25 2 -3 -1 -13 -7 -23z m1526 5 c-3 -8 -6 -5 -6 6
-1 11 2 17 5 13 3 -3 4 -12 1 -19z m-303 -15 c3 -4 21 -12 40 -18 26 -9 39 -9
58 1 13 7 38 13 54 12 16 0 36 1 44 3 9 2 15 -3 15 -13 0 -9 4 -20 8 -24 10
-11 9 -34 -3 -34 -5 0 -21 -12 -35 -26 -17 -17 -33 -24 -46 -21 -16 4 -19 2
-13 -15 4 -13 2 -18 -4 -14 -5 3 -13 -4 -16 -17 -6 -20 -8 -20 -19 11 -7 19
-16 32 -22 30 -5 -1 -9 -6 -7 -10 1 -5 -2 -8 -8 -8 -5 0 -10 5 -10 10 0 6 -7
10 -15 10 -8 0 -15 5 -15 10 0 6 -13 10 -30 10 -16 0 -45 9 -64 19 -19 11 -37
17 -41 13 -3 -3 -3 2 1 12 5 14 4 17 -5 12 -6 -4 -17 -3 -24 2 -7 5 -19 12
-27 15 -8 2 -2 3 13 1 18 -2 30 2 34 12 4 12 8 13 14 3 5 -9 11 -10 21 -2 20
17 90 28 102 16z m243 -29 c-3 -3 -12 -4 -19 -1 -8 3 -5 6 6 6 11 1 17 -2 13
-5z m-1250 -30 c3 -9 -4 -35 -16 -57 -15 -27 -21 -33 -17 -17 3 14 6 40 6 58
0 33 16 43 27 16z m803 0 c0 -8 -5 -12 -10 -9 -6 4 -8 11 -5 16 9 14 15 11 15
-7z m-946 -110 c9 -3 16 -15 16 -27 0 -19 -1 -20 -20 -2 -30 27 -28 41 4 29z
m3119 -37 c10 -7 34 -55 53 -107 78 -207 96 -257 114 -320 10 -36 27 -87 37
-115 11 -27 30 -93 42 -145 12 -52 29 -113 38 -135 8 -22 22 -76 30 -120 35
-181 41 -213 57 -271 9 -34 22 -118 31 -186 8 -69 15 -129 16 -134 1 -5 -1
-35 -4 -66 -4 -32 -10 -83 -13 -113 l-5 -55 -42 0 c-73 0 -87 8 -88 49 -1 45
-27 92 -62 109 -18 9 -81 14 -185 16 -257 5 -458 -16 -710 -73 -152 -35 -142
-34 -142 -21 0 6 6 10 13 10 7 0 20 13 30 29 l17 30 -35 12 c-24 9 -34 18 -30
29 2 8 -1 38 -8 65 -14 54 -35 65 -52 28 -16 -38 -34 -26 -59 40 -10 26 -22
47 -28 47 -6 0 -8 6 -5 14 3 8 -1 20 -9 27 -11 9 -12 14 -3 19 6 4 8 13 5 19
-4 6 -12 9 -17 6 -5 -4 -12 7 -15 24 -4 17 -10 31 -15 31 -5 0 -9 20 -9 45 0
30 -5 48 -14 51 -7 3 -14 16 -15 30 -4 82 -7 89 -29 100 -16 8 -19 13 -10 17
10 4 11 7 1 18 -10 10 -13 10 -13 0 0 -7 -5 -9 -11 -5 -8 4 -9 -1 -4 -17 7
-23 7 -24 -9 -4 -8 11 -16 33 -16 48 0 16 -4 26 -10 22 -5 -3 -10 -1 -10 4 0
18 38 12 43 -6 2 -10 3 -6 1 10 -4 27 10 38 19 15 3 -7 6 24 6 70 1 67 -2 82
-14 82 -8 0 -15 4 -15 9 0 5 -15 8 -32 6 -49 -4 -63 23 -64 125 -1 84 -13 127
-40 143 -8 4 -14 18 -14 29 0 12 -7 50 -16 84 -8 34 -14 86 -12 115 l4 54 9
-65 c7 -52 10 -60 16 -40 7 25 7 25 8 2 1 -31 21 -18 21 14 0 46 -22 114 -37
114 -7 0 -16 7 -19 15 -4 8 -15 15 -25 15 -23 0 -25 13 -4 30 12 10 18 8 34
-11 11 -13 22 -21 26 -17 10 10 -18 47 -40 51 -11 2 -4 5 16 6 19 0 39 5 45
10 5 5 29 11 54 14 25 3 63 10 85 17 22 6 67 16 100 21 33 5 92 14 130 20 161
27 877 39 908 16z m-2816 -49 c-3 -8 -6 -5 -6 6 -1 11 2 17 5 13 3 -3 4 -12 1
-19z m473 -73 c76 -3 76 -3 55 -19 -16 -12 -17 -16 -6 -30 18 -21 29 -20 76 5
22 12 59 22 83 23 39 1 42 -1 42 -25 0 -15 -7 -29 -15 -33 -8 -3 -15 -9 -15
-14 0 -5 -21 -31 -46 -58 -26 -27 -53 -63 -60 -80 -11 -27 -17 -30 -43 -26
-24 3 -31 0 -31 -12 0 -10 -9 -16 -25 -16 -14 0 -25 5 -25 10 0 6 5 10 10 10
6 0 10 8 10 19 0 14 -10 20 -40 25 -31 5 -40 11 -40 26 0 11 -6 20 -13 20 -7
0 -22 7 -33 15 -18 14 -18 16 -1 26 17 10 16 12 -3 36 -11 14 -20 33 -20 43 0
9 -3 20 -7 24 -4 3 -8 16 -10 27 -3 20 0 20 49 13 29 -4 78 -8 108 -9z m1000
-100 c0 -12 -19 -12 -23 0 -4 9 -1 12 9 8 7 -3 14 -7 14 -8z m47 -32 c-3 -10
-5 -4 -5 12 0 17 2 24 5 18 2 -7 2 -21 0 -30z m-654 -91 c9 -8 17 -25 17 -36
0 -16 -2 -18 -9 -7 -5 8 -16 11 -25 8 -9 -4 -16 -1 -16 4 0 6 -9 9 -20 6 -26
-7 -28 28 -3 42 19 10 27 7 56 -17z m-239 -73 c-3 -5 -10 -7 -15 -3 -5 3 -7
10 -3 15 3 5 10 7 15 3 5 -3 7 -10 3 -15z m923 -171 c-3 -8 -6 -5 -6 6 -1 11
2 17 5 13 3 -3 4 -12 1 -19z m80 -310 c-3 -8 -6 -5 -6 6 -1 11 2 17 5 13 3 -3
4 -12 1 -19z m45 -181 c3 -13 1 -32 -2 -43 -5 -13 -8 -5 -8 24 -1 47 3 54 10
19z m1181 -644 c-7 -2 -19 -2 -25 0 -7 3 -2 5 12 5 14 0 19 -2 13 -5z m103 -4
c3 -5 -13 -9 -35 -9 -23 0 -41 4 -41 8 0 11 69 12 76 1z m201 -201 c-3 -7 -5
-2 -5 12 0 14 2 19 5 13 2 -7 2 -19 0 -25z m-17 -43 c0 -8 -4 -15 -10 -15 -5
0 -7 7 -4 15 4 8 8 15 10 15 2 0 4 -7 4 -15z m-1055 -142 c39 -8 80 -17 93
-19 12 -2 22 -12 22 -20 0 -10 -6 -14 -15 -10 -9 3 -15 0 -15 -9 0 -8 7 -15
15 -15 8 0 15 -4 15 -9 0 -14 -48 -22 -87 -15 -20 4 -46 7 -56 8 -18 1 -67 66
-50 66 4 0 -3 7 -15 16 -29 20 -29 38 1 29 12 -3 54 -13 92 -22z m149 -207
c20 -10 23 -15 12 -19 -8 -3 -22 3 -32 14 -20 23 -16 24 20 5z m74 7 c-10 -2
-26 -2 -35 0 -10 3 -2 5 17 5 19 0 27 -2 18 -5z m92 -12 c0 -11 -39 -25 -47
-18 -3 3 -2 10 2 16 8 13 45 15 45 2z m-71 -72 c13 -11 22 -21 19 -24 -2 -2
-17 7 -32 20 -16 14 -25 25 -20 25 5 -1 20 -10 33 -21z m31 11 c8 -5 11 -10 5
-10 -5 0 -17 5 -25 10 -8 5 -10 10 -5 10 6 0 17 -5 25 -10z m40 -19 c0 -5 -7
-17 -16 -25 -8 -9 -12 -22 -8 -28 5 -10 4 -10 -6 -1 -10 9 -8 16 6 37 21 28
24 30 24 17z m120 -68 c-8 -3 -24 -10 -35 -16 -18 -9 -19 -9 -6 6 7 10 23 17
35 16 14 0 16 -2 6 -6z m209 -7 c-2 -2 -18 -8 -34 -11 -21 -5 -27 -4 -20 3 6
5 19 12 30 14 20 4 32 1 24 -6z m-142 -32 c-3 -3 -12 -4 -19 -1 -8 3 -5 6 6 6
11 1 17 -2 13 -5z m-1345 -201 l34 -58 -43 4 c-32 2 -43 7 -43 20 0 21 12 91
15 91 2 0 18 -26 37 -57z m1532 -248 c-9 -14 -19 -24 -21 -21 -6 6 20 46 30
46 4 0 0 -11 -9 -25z m-1134 -192 c14 -10 34 -16 45 -15 l20 4 -20 -16 c-16
-13 -17 -15 -2 -10 12 4 17 1 17 -11 0 -16 -8 -17 -72 -10 -172 16 -179 20
-107 51 65 28 87 29 119 7z m-1117 -111 c-7 -16 -16 -8 -20 19 -2 16 -1 18 11
7 7 -7 11 -19 9 -26z m1262 28 c3 -5 -1 -10 -9 -10 -9 0 -16 5 -16 10 0 6 4
10 9 10 6 0 13 -4 16 -10z m114 -4 c-2 -2 -26 -6 -54 -10 -34 -4 -45 -3 -35 4
14 9 99 15 89 6z m154 -3 c-7 -2 -19 -2 -25 0 -7 3 -2 5 12 5 14 0 19 -2 13
-5z"/>
<path d="M2791 2934 c0 -11 3 -14 6 -6 3 7 2 16 -1 19 -3 4 -6 -2 -5 -13z"/>
<path d="M2820 2930 c0 -5 5 -10 10 -10 6 0 10 5 10 10 0 6 -4 10 -10 10 -5 0
-10 -4 -10 -10z"/>
<path d="M2858 2788 c-7 -21 3 -98 13 -98 5 0 7 -12 3 -27 -4 -21 -3 -24 5
-13 8 12 12 9 17 -17 10 -50 27 -41 19 10 -8 48 -21 77 -35 77 -6 0 -10 9 -10
21 0 11 4 18 9 15 4 -3 6 6 3 19 -5 27 -17 33 -24 13z"/>
<path d="M2856 2602 c-2 -4 -1 -14 3 -21 6 -9 10 -7 14 8 5 20 -7 29 -17 13z"/>
<path d="M2920 2570 c0 -5 5 -10 10 -10 6 0 10 5 10 10 0 6 -4 10 -10 10 -5 0
-10 -4 -10 -10z"/>
<path d="M3315 1120 c-3 -5 1 -10 10 -10 9 0 13 5 10 10 -3 6 -8 10 -10 10 -2
0 -7 -4 -10 -10z"/>
<path d="M2732 3935 c0 -16 2 -22 5 -12 2 9 2 23 0 30 -3 6 -5 -1 -5 -18z"/>
<path d="M1241 3284 c0 -11 3 -14 6 -6 3 7 2 16 -1 19 -3 4 -6 -2 -5 -13z"/>
<path d="M3968 953 c6 -2 18 -2 25 0 6 3 1 5 -13 5 -14 0 -19 -2 -12 -5z"/>
<path d="M4171 854 c0 -11 3 -14 6 -6 3 7 2 16 -1 19 -3 4 -6 -2 -5 -13z"/>
<path d="M2645 60 c-3 -5 -18 -10 -32 -10 -15 0 -24 -2 -21 -5 2 -3 33 -2 68
2 45 4 58 9 45 14 -29 11 -53 11 -60 -1z"/>
<path d="M2815 60 c-3 -6 1 -13 10 -16 19 -8 30 0 20 15 -8 14 -22 14 -30 1z"/>
<path d="M1848 43 c6 -2 18 -2 25 0 6 3 1 5 -13 5 -14 0 -19 -2 -12 -5z"/>
<path d="M1948 43 c7 -3 16 -2 19 1 4 3 -2 6 -13 5 -11 0 -14 -3 -6 -6z"/>
<path d="M1915 10 c-3 -5 1 -10 10 -10 9 0 13 5 10 10 -3 6 -8 10 -10 10 -2 0
-7 -4 -10 -10z"/>
</g>
</svg>
